<svg width="16" height="17" viewBox="0 0 16 17" fill="none" xmlns="http://www.w3.org/2000/svg">
<g id="paper-airplane">
<path id="Vector" d="M13.9576 9.21518C14.0903 9.14867 14.2019 9.04655 14.2799 8.92024C14.3579 8.79393 14.3992 8.64842 14.3992 8.49998C14.3992 8.35154 14.3579 8.20603 14.2799 8.07972C14.2019 7.95341 14.0903 7.85129 13.9576 7.78478L2.75762 2.18478C2.61875 2.1153 2.46266 2.08773 2.30839 2.10544C2.15412 2.12316 2.00834 2.18538 1.88883 2.28453C1.76933 2.38369 1.68126 2.51547 1.63537 2.66382C1.58949 2.81217 1.58777 2.97067 1.63042 3.11998L2.77362 7.11998C2.82144 7.28716 2.92243 7.43421 3.06129 7.53886C3.20016 7.64352 3.36934 7.70008 3.54322 7.69998L7.20002 7.69998C7.4122 7.69998 7.61568 7.78427 7.76571 7.9343C7.91574 8.08432 8.00002 8.28781 8.00002 8.49998C8.00002 8.71215 7.91574 8.91564 7.76571 9.06567C7.61568 9.21569 7.4122 9.29998 7.20002 9.29998H3.54322C3.36934 9.29988 3.20016 9.35644 3.06129 9.4611C2.92243 9.56575 2.82144 9.7128 2.77362 9.87998L1.63122 13.88C1.58848 14.0292 1.5901 14.1877 1.63588 14.3361C1.68165 14.4844 1.76961 14.6163 1.88903 14.7155C2.00844 14.8147 2.15415 14.8771 2.30838 14.8949C2.46262 14.9128 2.61871 14.8853 2.75762 14.816L13.9576 9.21598V9.21518Z" fill="white"/>
</g>
</svg>
