<svg width="24" height="25" viewBox="0 0 24 25" fill="none" xmlns="http://www.w3.org/2000/svg">
<path d="M19.2002 5.7998H19.2003C19.6852 5.79972 20.1518 5.98502 20.5045 6.31777C20.7792 6.57694 20.9686 6.91027 21.0523 7.27374L12.0002 11.7992L2.94815 7.27374C3.03179 6.91027 3.22123 6.57694 3.49594 6.31777C3.84864 5.98502 4.31522 5.79972 4.80012 5.7998H4.80021H19.2002Z" fill="#696969" stroke="#696969"/>
<path d="M21.5999 10.2417L11.9999 15.0417L2.3999 10.2417V17.3001C2.3999 17.9366 2.65276 18.5471 3.10285 18.9972C3.55293 19.4472 4.16338 19.7001 4.7999 19.7001H19.1999C19.8364 19.7001 20.4469 19.4472 20.897 18.9972C21.347 18.5471 21.5999 17.9366 21.5999 17.3001V10.2417Z" fill="#696969"/>
</svg>
