<svg width="24" height="24" viewBox="0 0 24 24" fill="none" xmlns="http://www.w3.org/2000/svg">
<path fill-rule="evenodd" clip-rule="evenodd" d="M19.952 1.651C20.0447 1.72096 20.1198 1.81148 20.1715 1.91543C20.2232 2.01937 20.2501 2.1339 20.25 2.25V16.303C20.2499 16.9548 20.0374 17.5889 19.6448 18.1093C19.2522 18.6296 18.7008 19.008 18.074 19.187L16.754 19.564C16.4302 19.6612 16.0903 19.6931 15.754 19.6579C15.4178 19.6226 15.0918 19.5209 14.7952 19.3587C14.4986 19.1965 14.2371 18.977 14.026 18.7129C13.8149 18.4488 13.6583 18.1454 13.5654 17.8203C13.4725 17.4952 13.4451 17.1549 13.4847 16.8192C13.5244 16.4834 13.6304 16.1589 13.7965 15.8644C13.9626 15.5699 14.1856 15.3114 14.4525 15.1038C14.7193 14.8961 15.0247 14.7436 15.351 14.655L17.662 13.995C17.9754 13.9055 18.2511 13.7163 18.4474 13.4561C18.6437 13.196 18.75 12.8789 18.75 12.553V6.994L9.75002 9.566V19.303C9.74989 19.9548 9.53744 20.5889 9.14483 21.1093C8.75222 21.6296 8.20081 22.008 7.57402 22.187L6.25402 22.564C5.92979 22.6625 5.58918 22.6955 5.25207 22.661C4.91495 22.6265 4.58808 22.5253 4.2905 22.3632C3.99291 22.2011 3.73058 21.9814 3.5188 21.7168C3.30701 21.4523 3.15002 21.1482 3.05696 20.8224C2.9639 20.4965 2.93664 20.1554 2.97677 19.8189C3.0169 19.4824 3.12362 19.1573 3.2907 18.8625C3.45779 18.5677 3.68189 18.3091 3.94995 18.1018C4.21801 17.8944 4.52466 17.7426 4.85202 17.655L7.16202 16.995C7.47541 16.9055 7.75112 16.7163 7.94743 16.4561C8.14373 16.196 8.24996 15.8789 8.25002 15.553V9.017V5.25C8.25006 5.08703 8.30317 4.92851 8.40132 4.79843C8.49947 4.66834 8.63733 4.57376 8.79402 4.529L19.294 1.529C19.4057 1.497 19.5232 1.49137 19.6374 1.51254C19.7516 1.53371 19.8593 1.58111 19.952 1.651V1.651Z" fill="#7E3AF2"/>
</svg>
